<svg width="1440" height="528" viewBox="0 0 1440 528" fill="none" xmlns="http://www.w3.org/2000/svg">
<path d="M217.405 394.008C157.159 391.882 -38.2756 402.083 -100.688 399.48C-163.101 396.878 -187.481 325.919 -144.059 296.373C-100.636 266.828 -72.8196 287.3 -72.8196 287.3C-72.8196 287.3 -83.1244 234.558 -47.9125 218.7C-12.7072 202.845 32.955 227.993 40.0262 288.926C40.0262 288.926 38.8438 270.204 65.3894 258.927C91.935 247.651 137.126 259.688 166.986 290.555C196.846 321.421 189.198 343.038 181.307 350.629C181.307 350.629 232.495 345.591 264.749 359.99C297.004 374.389 277.65 396.134 217.405 394.008Z" fill="#FFB287" fill-opacity="0.3"/>
<path d="M1470.4 265.008C1410.16 262.882 1214.72 273.083 1152.31 270.48C1089.9 267.878 1065.52 196.919 1108.94 167.373C1152.36 137.828 1180.18 158.3 1180.18 158.3C1180.18 158.3 1169.88 105.558 1205.09 89.7003C1240.29 73.8448 1285.96 98.9931 1293.03 159.926C1293.03 159.926 1291.84 141.204 1318.39 129.927C1344.93 118.651 1390.13 130.688 1419.99 161.555C1449.85 192.421 1442.2 214.038 1434.31 221.629C1434.31 221.629 1485.5 216.591 1517.75 230.99C1550 245.389 1530.65 267.134 1470.4 265.008Z" fill="#FFB287" fill-opacity="0.3"/>
</svg>
