<svg width="58" height="58" viewBox="0 0 58 58" fill="none" xmlns="http://www.w3.org/2000/svg">
    <g clip-path="url(#clip0_198_7)">
        <path
            d="M23.7273 15.8184H2.63636C1.18039 15.8184 0 16.9987 0 18.4547C0 19.9107 1.18039 21.0911 2.63636 21.0911H23.7273C25.1832 21.0911 26.3636 19.9107 26.3636 18.4547C26.3636 16.9987 25.1832 15.8184 23.7273 15.8184Z"
            fill="#D7282F" />
        <path
            d="M23.7273 26.3638H2.63636C1.18039 26.3638 0 27.5442 0 29.0001C0 30.4561 1.18039 31.6365 2.63636 31.6365H23.7273C25.1832 31.6365 26.3636 30.4561 26.3636 29.0001C26.3636 27.5442 25.1832 26.3638 23.7273 26.3638Z"
            fill="#D7282F" />
        <path
            d="M23.7273 36.9092H2.63636C1.18039 36.9092 0 38.0896 0 39.5455C0 41.0015 1.18039 42.1819 2.63636 42.1819H23.7273C25.1832 42.1819 26.3636 41.0015 26.3636 39.5455C26.3636 38.0896 25.1832 36.9092 23.7273 36.9092Z"
            fill="#D7282F" />
        <path
            d="M57.7993 22.7188C57.3912 21.7337 56.43 21.0913 55.3636 21.0913H34.2727C33.2064 21.0913 32.2452 21.7337 31.8371 22.7188C31.4292 23.7039 31.6546 24.8379 32.4086 25.5919L42.9541 36.1374C43.4687 36.6522 44.1435 36.9095 44.8182 36.9095C45.4929 36.9095 46.1677 36.6522 46.6823 36.1372L57.2277 25.5918C57.9819 24.8379 58.2074 23.7039 57.7993 22.7188Z"
            fill="#D7282F" />
    </g>
    <defs>
        <clipPath id="clip0_198_7">
            <rect width="58" height="58" fill="white" />
        </clipPath>
    </defs>
</svg>