<svg xmlns:xlink="http://www.w3.org/1999/xlink" xmlns="http://www.w3.org/2000/svg" id="Layer_1" data-name="Layer 1"
    viewBox="0 0 113.04 113.04" width="113.04" height="113.04">
    <defs>
        <style>
            .cls-1 {
                fill: #002d5e;
            }
        </style>
    </defs>
    <title>revistas</title>
    <g id="Grupo_302" data-name="Grupo 302">
        <g id="Grupo_301" data-name="Grupo 301">
            <path id="Caminho_560" data-name="Caminho 560" class="cls-1"
                d="M101.89,25H31.37a1.72,1.72,0,0,0-1.73,1.73h0V83.37L13.58,69.94a1.74,1.74,0,0,0-2.23,2.67L30.26,88.42l.08,0,.12.09.16.08a.34.34,0,0,0,.12.06l.2.07.11,0,.32,0h70.52a1.74,1.74,0,0,0,1.74-1.74h0V26.7A1.74,1.74,0,0,0,101.89,25Zm-1.73,60.39h-67V28.43h67.05Z" />
            <path id="Caminho_561" data-name="Caminho 561" class="cls-1"
                d="M55.32,63.89h-14a.7.7,0,0,0,0,1.39h14a.7.7,0,1,0,0-1.39Z" />
            <path id="Caminho_562" data-name="Caminho 562" class="cls-1"
                d="M55.32,67.48h-14a.7.7,0,0,0,0,1.39h14a.7.7,0,1,0,0-1.39Z" />
            <path id="Caminho_563" data-name="Caminho 563" class="cls-1"
                d="M55.32,71.07h-14a.7.7,0,0,0,0,1.39h14a.7.7,0,1,0,0-1.39Z" />
            <path id="Caminho_564" data-name="Caminho 564" class="cls-1"
                d="M55.32,74.66h-14a.7.7,0,0,0-.69.7.69.69,0,0,0,.69.69h14a.69.69,0,0,0,.7-.69.7.7,0,0,0-.7-.7Z" />
            <path id="Caminho_565" data-name="Caminho 565" class="cls-1"
                d="M52.61,78.25H41.31a.7.7,0,0,0,0,1.4h11.3a.7.7,0,0,0,0-1.4Z" />
            <path id="Caminho_566" data-name="Caminho 566" class="cls-1"
                d="M92,63.89H60.75a.7.7,0,1,0,0,1.39H92a.7.7,0,0,0,0-1.39Z" />
            <path id="Caminho_567" data-name="Caminho 567" class="cls-1"
                d="M92,67.48H60.75a.7.7,0,0,0,0,1.39H92a.7.7,0,0,0,0-1.39Z" />
            <path id="Caminho_568" data-name="Caminho 568" class="cls-1"
                d="M92,71.07H60.75a.7.7,0,1,0,0,1.39H92a.7.7,0,0,0,0-1.39Z" />
            <path id="Caminho_569" data-name="Caminho 569" class="cls-1"
                d="M87.43,74.66H60.75a.7.7,0,0,0-.69.7.69.69,0,0,0,.69.69H87.43a.69.69,0,0,0,.69-.69A.7.7,0,0,0,87.43,74.66Z" />
            <rect id="Retângulo_71" data-name="Retângulo 71" class="cls-1" x="40.27" y="43.98" width="52.73"
                height="15.43" rx="0.27" />
            <path id="Caminho_570" data-name="Caminho 570" class="cls-1"
                d="M96.46,94.77H30.15l-17.89-15h0A1.74,1.74,0,0,0,10,82.48L28.41,97.84l.07,0,.13.09.16.09.12.05a.7.7,0,0,0,.19.06.27.27,0,0,0,.12,0,1.66,1.66,0,0,0,.32,0H96.46a1.74,1.74,0,0,0,0-3.47Z" />
            <path id="Caminho_571" data-name="Caminho 571" class="cls-1"
                d="M41.31,39.73H78.47a.7.7,0,0,0,0-1.39H41.31a.7.7,0,0,0,0,1.39Z" />
            <path id="Caminho_572" data-name="Caminho 572" class="cls-1"
                d="M81.94,39.73h5.84a.7.7,0,1,0,0-1.39H81.94a.7.7,0,1,0,0,1.39Z" />
            <path id="Caminho_573" data-name="Caminho 573" class="cls-1"
                d="M91.19,39.73H92a.7.7,0,0,0,0-1.39h-.77a.7.7,0,1,0,0,1.39Z" />
        </g>
    </g>
</svg>