<svg width="113" height="113" viewBox="0 0 113 113" fill="none" xmlns="http://www.w3.org/2000/svg">
<path d="M56.3 34.2C55.9 34.2 55.6 34.5 55.6 34.9V75.5999C55.6 75.9999 55.9 76.3 56.2 76.3C56.6 76.3 56.9 75.9999 56.9 75.6999V34.7999C56.9 34.4999 56.6 34.2 56.3 34.2Z" fill="#002D5E"/>
<path d="M56.3 78.2C55.9 78.2 55.6 78.5 55.6 78.9V83.7C55.6 84.1 55.9 84.4 56.3 84.4C56.7 84.4 57 84.1 57 83.7V78.9C56.9 78.5 56.6 78.2 56.3 78.2Z" fill="#002D5E"/>
<path d="M56.3 86.3999C55.9 86.3999 55.6 86.6999 55.6 87.0999V87.8999C55.6 88.2999 55.9 88.5999 56.2 88.5999C56.6 88.5999 56.9 88.2999 56.9 87.8999V86.9999C56.9 86.6999 56.6 86.3999 56.3 86.3999Z" fill="#002D5E"/>
<path d="M99.7 21.5999C99.3 21.2999 98.8 21.1999 98.3 21.1999L56.3 28.9999L14.2 21.1999C13.3 20.9999 12.4 21.5999 12.2 22.4999C12.2 22.5999 12.2 22.6999 12.2 22.7999V88.5999C12.2 89.3999 12.8 90.0999 13.6 90.2999L56 98.1999C56.1 98.1999 56.2 98.1999 56.3 98.1999C56.4 98.1999 56.5 98.1999 56.6 98.1999L99 90.3999C99.8 90.2999 100.4 89.4999 100.4 88.6999V22.9999C100.4 22.4999 100.1 21.9999 99.7 21.5999ZM84.2 27.2999L91.1 25.9999V40.1999L88.2 38.7999C87.8 38.5999 87.4 38.6999 87 38.9999L84.2 41.7999V27.2999ZM96.9 87.2999L56.2 94.7999L15.5 87.2999V24.9999L55.9 32.4999C56.1 32.4999 56.3 32.4999 56.5 32.4999L82.1 27.7999V44.3999C82.1 44.9999 82.5 45.3999 83.1 45.3999C83.4 45.3999 83.7 45.2999 83.9 45.0999L88 41.0999L91.7 42.8999C92.2 43.1999 92.8 42.9999 93.1 42.4999C93.2 42.3999 93.2 42.1999 93.2 42.0999V25.6999L97.1 24.9999V87.2999H96.9Z" fill="#002D5E"/>
</svg>
