<svg width="169" height="58" viewBox="0 0 169 58" fill="none" xmlns="http://www.w3.org/2000/svg">
<path d="M47.6172 34.8013C44.0653 34.8013 40.6589 33.3903 38.1474 30.8788C35.6358 28.3672 34.2249 24.9608 34.2249 21.4089C34.2249 17.8571 35.6358 14.4507 38.1474 11.9391C40.6589 9.42758 44.0653 8.0166 47.6172 8.0166V13.9688C46.1457 13.9688 44.7072 14.4051 43.4836 15.2227C42.2601 16.0402 41.3065 17.2022 40.7434 18.5617C40.1802 19.9212 40.0329 21.4172 40.32 22.8605C40.607 24.3037 41.3157 25.6294 42.3562 26.67C43.3967 27.7105 44.7224 28.4191 46.1657 28.7062C47.6089 28.9933 49.1049 28.8459 50.4644 28.2828C51.8239 27.7197 52.9859 26.766 53.8035 25.5425C54.621 24.319 55.0574 22.8805 55.0574 21.4089H61.0095C61.0095 24.9608 59.5986 28.3672 57.087 30.8788C54.5755 33.3903 51.1691 34.8013 47.6172 34.8013Z" fill="#003A70"/>
<path d="M112.347 34.8016C108.795 34.8016 105.389 33.3906 102.877 30.8791C100.366 28.3675 98.9546 24.9611 98.9546 21.4092V8.68652H104.907V21.413C104.847 22.4253 104.994 23.4392 105.341 24.3924C105.687 25.3457 106.224 26.218 106.92 26.956C107.615 27.694 108.454 28.282 109.385 28.6839C110.316 29.0858 111.32 29.2931 112.334 29.2931C113.348 29.2931 114.351 29.0858 115.283 28.6839C116.214 28.282 117.053 27.694 117.748 26.956C118.444 26.218 118.981 25.3457 119.327 24.3924C119.673 23.4392 119.821 22.4253 119.761 21.413V8.68652H125.713V21.413C125.712 24.9597 124.304 28.3612 121.799 30.8712C119.293 33.3812 115.894 34.7947 112.347 34.8016Z" fill="#003A70"/>
<path d="M64.0377 18.3772H58.0856C58.0856 16.4039 57.3017 14.5115 55.9064 13.1162C54.5111 11.7209 52.6186 10.937 50.6454 10.937V4.98486C54.1973 4.98486 57.6036 6.39584 60.1152 8.90739C62.6268 11.4189 64.0377 14.8253 64.0377 18.3772Z" fill="#D7282F"/>
<path d="M30.8582 14.6495V8.68994H5.69922V34.1391H11.6588V27.3723H27.5473V21.4127H11.6588V14.6495H30.8582Z" fill="#003A70"/>
<path d="M157.256 8.68994L146.903 19.9841L136.557 8.68994H130.776V34.1391H136.736V17.7075L145.59 27.3723H148.212L157.077 17.7037V34.1391H163.037V8.68994H157.256Z" fill="#003A70"/>
<path d="M94.9442 34.1391L88.196 26.6431C90.1851 25.8074 91.8236 24.309 92.8333 22.4022C93.8429 20.4955 94.1613 18.298 93.7345 16.1831C93.3076 14.0682 92.1618 12.1662 90.4917 10.8003C88.8216 9.43439 86.7302 8.68871 84.5726 8.68994H68.7548V34.1391H74.7069V27.3723H80.8265L86.9163 34.1391H94.9442ZM74.7143 14.6495H84.5726C85.4694 14.6495 86.3296 15.0058 86.9637 15.64C87.5979 16.2741 87.9542 17.1343 87.9542 18.0311C87.9542 18.9279 87.5979 19.7881 86.9637 20.4222C86.3296 21.0564 85.4694 21.4127 84.5726 21.4127H74.7143V14.6495Z" fill="#003A70"/>
<path d="M6.61428 52.048C6.01596 51.3254 5.69071 50.4155 5.69541 49.4774C5.69541 49.2431 5.69541 48.8562 5.69541 48.3279C5.69541 47.7997 5.69541 47.3942 5.69541 47.1486C5.68872 46.2068 6.01405 45.2927 6.61428 44.5669C7.17973 43.927 8.02915 43.6071 9.16254 43.6071C9.83283 43.5828 10.4984 43.7287 11.097 44.0312C11.5713 44.2746 11.9681 44.6457 12.2428 45.1026C12.4791 45.5038 12.618 45.9549 12.6483 46.4195V46.4455C12.6493 46.4782 12.6428 46.5106 12.6292 46.5402C12.6157 46.5699 12.5955 46.5961 12.5701 46.6167C12.5133 46.659 12.4439 46.6813 12.373 46.6799H12.1089C11.9526 46.6799 11.8596 46.5906 11.8224 46.4046C11.7303 45.7868 11.4089 45.2263 10.9221 44.8347C10.3938 44.505 9.77706 44.3453 9.1551 44.3772C8.80637 44.3567 8.45714 44.4079 8.12893 44.5276C7.80072 44.6472 7.50048 44.8328 7.24669 45.0728C6.79284 45.5341 6.54484 46.2447 6.50267 47.2044C6.50267 47.4388 6.50267 47.7997 6.50267 48.2907C6.50267 48.7818 6.50267 49.1463 6.50267 49.4067C6.53491 50.3665 6.78292 51.0771 7.24669 51.5383C7.49997 51.7791 7.80014 51.9652 8.12847 52.0849C8.45681 52.2046 8.80628 52.2553 9.1551 52.234C9.77706 52.2659 10.3938 52.1062 10.9221 51.7764C11.4095 51.3854 11.731 50.8246 11.8224 50.2066C11.8596 50.0206 11.9526 49.9313 12.1089 49.9313H12.373C12.4464 49.9289 12.5181 49.9541 12.5739 50.002C12.6018 50.0243 12.6233 50.0536 12.6364 50.0869C12.6494 50.1202 12.6535 50.1563 12.6483 50.1917C12.6175 50.6608 12.4759 51.1159 12.2353 51.5198C11.9607 51.9767 11.5638 52.3477 11.0896 52.5911C10.4913 52.895 9.82571 53.0421 9.1551 53.0189C8.02791 53.0115 7.17973 52.6879 6.61428 52.048Z" fill="#636569"/>
<path d="M14.3558 49.399C14.3558 49.1386 14.3558 48.7741 14.3558 48.3016C14.3558 47.8292 14.3558 47.4646 14.3558 47.1856C14.3881 46.0001 14.7105 45.1023 15.3231 44.4922C15.6533 44.1787 16.044 43.9359 16.4712 43.7785C16.8985 43.6212 17.3534 43.5526 17.8081 43.5771C18.2628 43.5526 18.7176 43.6212 19.1449 43.7785C19.5722 43.9359 19.9629 44.1787 20.2931 44.4922C20.9032 45.1023 21.2256 46.0001 21.2603 47.1856C21.2789 47.7064 21.2864 48.0747 21.2864 48.3016C21.2864 48.5285 21.2864 48.8782 21.2603 49.399C21.2008 51.8072 20.0501 53.0113 17.8081 53.0113C15.5661 53.0113 14.4154 51.8072 14.3558 49.399ZM19.683 51.5121C20.1517 51.0359 20.401 50.3105 20.427 49.3358C20.427 48.8113 20.4531 48.469 20.4531 48.3016C20.4531 48.1342 20.4531 47.792 20.427 47.2674C20.3898 46.2928 20.1418 45.5673 19.683 45.0912C19.438 44.8517 19.1466 44.6648 18.8267 44.542C18.5069 44.4192 18.1653 44.363 17.823 44.3769C17.4806 44.363 17.139 44.4192 16.8192 44.542C16.4993 44.6648 16.2079 44.8517 15.9629 45.0912C15.4942 45.5673 15.2462 46.2928 15.2189 47.2674C15.2189 47.5316 15.2189 47.8738 15.2189 48.3016C15.2189 48.7294 15.2189 49.0717 15.2189 49.3358C15.2561 50.3105 15.5053 51.0359 15.9629 51.5121C16.2074 51.7523 16.4987 51.9396 16.8187 52.0625C17.1387 52.1854 17.4805 52.2411 17.823 52.2263C18.1654 52.2411 18.5072 52.1854 18.8272 52.0625C19.1472 51.9396 19.4385 51.7523 19.683 51.5121Z" fill="#636569"/>
<path d="M23.4366 52.7993C23.4101 52.7716 23.3896 52.7389 23.3762 52.7031C23.3627 52.6673 23.3567 52.6292 23.3584 52.591V44.0347C23.3556 43.9543 23.3835 43.8758 23.4366 43.8152C23.4641 43.7873 23.4972 43.7655 23.5338 43.7514C23.5703 43.7373 23.6095 43.7312 23.6486 43.7334H23.9202C23.974 43.7359 24.0263 43.7523 24.0719 43.781C24.1175 43.8097 24.155 43.8497 24.1806 43.8971L29.0167 51.2703V44.0273C29.0139 43.9469 29.0418 43.8684 29.0948 43.8078C29.1225 43.7801 29.1556 43.7584 29.1921 43.7443C29.2287 43.7302 29.2678 43.724 29.3069 43.726H29.5412C29.582 43.7212 29.6232 43.7257 29.662 43.7392C29.7007 43.7526 29.7359 43.7747 29.7649 43.8037C29.7939 43.8327 29.8159 43.8678 29.8294 43.9066C29.8428 43.9453 29.8473 43.9866 29.8426 44.0273V52.5835C29.8454 52.664 29.8175 52.7424 29.7645 52.803C29.7375 52.8307 29.705 52.8523 29.6691 52.8664C29.6332 52.8805 29.5947 52.8868 29.5561 52.8848H29.266C29.2105 52.8845 29.1561 52.87 29.1079 52.8427C29.0597 52.8153 29.0193 52.776 28.9907 52.7286L24.1806 45.3851V52.6021C24.1818 52.6409 24.1748 52.6795 24.1601 52.7154C24.1453 52.7513 24.1232 52.7837 24.095 52.8104C24.0358 52.8632 23.9585 52.8912 23.8793 52.8886H23.6449C23.6059 52.8886 23.5673 52.8808 23.5315 52.8654C23.4957 52.85 23.4634 52.8275 23.4366 52.7993Z" fill="#636569"/>
<path d="M32.2718 52.7994C32.2453 52.7718 32.2248 52.7391 32.2114 52.7033C32.1979 52.6675 32.1919 52.6293 32.1937 52.5911V44.0349C32.1908 43.9545 32.2187 43.876 32.2718 43.8154C32.2987 43.7877 32.3312 43.7661 32.3671 43.752C32.403 43.7379 32.4416 43.7316 32.4801 43.7336H32.7145C32.7552 43.7288 32.7965 43.7333 32.8352 43.7468C32.8739 43.7602 32.9091 43.7823 32.9381 43.8113C32.9671 43.8403 32.9891 43.8754 33.0026 43.9142C33.0161 43.9529 33.0206 43.9942 33.0158 44.0349V47.8517H38.064V44.0275C38.0611 43.947 38.0891 43.8685 38.1421 43.808C38.169 43.7803 38.2015 43.7587 38.2374 43.7446C38.2733 43.7305 38.3119 43.7242 38.3504 43.7261H38.5885C38.6285 43.7237 38.6685 43.7294 38.7062 43.7428C38.7439 43.7562 38.7785 43.7771 38.808 43.8042C38.8359 43.8341 38.8575 43.8692 38.8715 43.9075C38.8856 43.9459 38.8918 43.9867 38.8898 44.0275V52.5837C38.8911 52.6225 38.8841 52.6611 38.8693 52.697C38.8546 52.7329 38.8324 52.7653 38.8043 52.792C38.7448 52.8445 38.6677 52.8724 38.5885 52.8701H38.3504C38.3121 52.8729 38.2736 52.8674 38.2376 52.854C38.2016 52.8405 38.1689 52.8195 38.1417 52.7924C38.1145 52.7652 38.0935 52.7325 38.0801 52.6965C38.0667 52.6605 38.0612 52.622 38.064 52.5837V48.6292H33.0158V52.5911C33.018 52.63 33.0115 52.6689 32.9967 52.705C32.9819 52.7411 32.9592 52.7733 32.9302 52.7994C32.8714 52.8529 32.7939 52.881 32.7145 52.8776H32.4801C32.4419 52.8793 32.4037 52.8733 32.3679 52.8599C32.3321 52.8464 32.2994 52.8259 32.2718 52.7994Z" fill="#636569"/>
<path d="M41.3228 52.7992C41.2964 52.7715 41.2758 52.7388 41.2624 52.703C41.249 52.6672 41.2429 52.629 41.2447 52.5908V44.0346C41.2418 43.9542 41.2698 43.8757 41.3228 43.8151C41.3496 43.7873 41.382 43.7655 41.418 43.7514C41.454 43.7373 41.4926 43.7311 41.5311 43.7333H46.6314C46.6721 43.7285 46.7134 43.733 46.7521 43.7465C46.7908 43.7599 46.826 43.782 46.855 43.811C46.884 43.84 46.9061 43.8752 46.9195 43.9139C46.933 43.9526 46.9375 43.9939 46.9327 44.0346V44.2281C46.9344 44.2669 46.9277 44.3057 46.9129 44.3417C46.8981 44.3776 46.8757 44.41 46.8471 44.4364C46.8186 44.4639 46.7847 44.4853 46.7476 44.4994C46.7105 44.5134 46.671 44.5199 46.6314 44.5182H42.0668V47.8663H46.3449C46.3849 47.8639 46.4249 47.8696 46.4626 47.883C46.5003 47.8964 46.535 47.9173 46.5644 47.9444C46.5918 47.9745 46.6129 48.0097 46.6263 48.0481C46.6397 48.0864 46.6452 48.1271 46.6425 48.1676V48.3611C46.6445 48.3996 46.6382 48.4382 46.6241 48.4741C46.61 48.51 46.5884 48.5425 46.5607 48.5694C46.5013 48.6219 46.4242 48.6498 46.3449 48.6475H42.0668V52.0812H46.7355C46.7763 52.0792 46.8171 52.0854 46.8554 52.0995C46.8938 52.1135 46.9289 52.1351 46.9587 52.163C46.9859 52.1925 47.0068 52.2271 47.0202 52.2648C47.0336 52.3025 47.0393 52.3426 47.0369 52.3825V52.5797C47.0381 52.6185 47.0311 52.6571 47.0164 52.693C47.0016 52.7289 46.9794 52.7613 46.9513 52.788C46.8921 52.8408 46.8148 52.8688 46.7355 52.8661H41.5274C41.4906 52.8691 41.4535 52.8647 41.4184 52.8532C41.3833 52.8417 41.3508 52.8233 41.3228 52.7992Z" fill="#636569"/>
<path d="M49.4773 52.0479C48.8792 51.3211 48.5553 50.4074 48.5621 49.4662C48.5621 49.2318 48.5621 48.8449 48.5621 48.3167C48.5621 47.7884 48.5621 47.3829 48.5621 47.1374C48.556 46.1963 48.8798 45.2828 49.4773 44.5557C50.0464 43.9158 50.8946 43.5959 52.0292 43.5959C52.6995 43.5715 53.3651 43.7174 53.9637 44.02C54.438 44.2634 54.8348 44.6344 55.1095 45.0914C55.3501 45.4952 55.4916 45.9503 55.5224 46.4194V46.4455C55.5236 46.4785 55.5168 46.5113 55.5025 46.5411C55.4883 46.5709 55.467 46.5968 55.4406 46.6166C55.3854 46.6595 55.317 46.6818 55.2471 46.6798H54.983C54.8268 46.6798 54.73 46.5906 54.6966 46.4045C54.6044 45.7867 54.283 45.2262 53.7963 44.8347C53.268 44.5049 52.6512 44.3452 52.0292 44.3771C51.6805 44.3567 51.3313 44.4079 51.0031 44.5275C50.6749 44.6471 50.3746 44.8327 50.1208 45.0728C49.667 45.534 49.419 46.2446 49.3768 47.2044C49.3768 47.4387 49.3768 47.7996 49.3768 48.2906C49.3768 48.7817 49.3768 49.1463 49.3768 49.4067C49.4091 50.3664 49.6571 51.077 50.1208 51.5383C50.3741 51.7791 50.6743 51.9651 51.0026 52.0848C51.331 52.2045 51.6804 52.2553 52.0292 52.2339C52.6512 52.2658 53.268 52.1061 53.7963 51.7764C54.2836 51.3853 54.6052 50.8246 54.6966 50.2065C54.73 50.0205 54.8268 49.9312 54.983 49.9312H55.2471C55.3206 49.9288 55.3922 49.954 55.448 50.0019C55.4754 50.0247 55.4965 50.0541 55.5095 50.0872C55.5225 50.1204 55.5269 50.1563 55.5224 50.1916C55.4916 50.6607 55.3501 51.1158 55.1095 51.5197C54.8348 51.9766 54.438 52.3477 53.9637 52.5911C53.3654 52.8949 52.6999 53.0421 52.0292 53.0189C50.8909 53.0114 50.0427 52.6878 49.4773 52.0479Z" fill="#636569"/>
<path d="M57.4792 52.7991C57.4528 52.7715 57.4322 52.7388 57.4188 52.7029C57.4054 52.6671 57.3993 52.629 57.4011 52.5908V44.0122C57.3983 43.9739 57.4038 43.9354 57.4172 43.8994C57.4307 43.8634 57.4517 43.8307 57.4788 43.8035C57.506 43.7764 57.5387 43.7554 57.5747 43.742C57.6107 43.7285 57.6492 43.723 57.6875 43.7258H57.9368C57.975 43.7238 58.0132 43.7297 58.0491 43.7432C58.0849 43.7566 58.1176 43.7773 58.1451 43.8039C58.172 43.8314 58.1932 43.864 58.2072 43.8998C58.2213 43.9355 58.228 43.9738 58.2269 44.0122V52.5908C58.228 52.6292 58.2213 52.6675 58.2072 52.7033C58.1932 52.7391 58.172 52.7716 58.1451 52.7991C58.1176 52.8257 58.0849 52.8464 58.0491 52.8598C58.0132 52.8733 57.975 52.8792 57.9368 52.8772H57.6875C57.6493 52.879 57.6112 52.8729 57.5754 52.8595C57.5396 52.8461 57.5068 52.8255 57.4792 52.7991Z" fill="#636569"/>
<path d="M60.6636 52.7992C60.636 52.7722 60.6144 52.7397 60.6002 52.7038C60.5861 52.6679 60.5798 52.6294 60.5818 52.5908V44.0346C60.5789 43.9937 60.5847 43.9527 60.5988 43.9142C60.6129 43.8758 60.635 43.8407 60.6636 43.8114C60.723 43.759 60.8002 43.731 60.8794 43.7333H61.2068C61.2643 43.7293 61.3217 43.7433 61.371 43.7732C61.4203 43.8032 61.4591 43.8478 61.482 43.9007L64.4581 49.6817L67.4342 43.9007C67.4585 43.8496 67.4971 43.8066 67.5453 43.7769C67.5935 43.7472 67.6492 43.7321 67.7058 43.7333H68.022C68.0627 43.7285 68.104 43.733 68.1427 43.7465C68.1814 43.7599 68.2166 43.782 68.2456 43.811C68.2746 43.84 68.2966 43.8752 68.3101 43.9139C68.3236 43.9526 68.3281 43.9939 68.3233 44.0346V52.5908C68.3245 52.6296 68.3175 52.6682 68.3028 52.7041C68.288 52.7401 68.2659 52.7724 68.2377 52.7992C68.1785 52.852 68.1013 52.8799 68.022 52.8773H67.7876C67.7488 52.8793 67.71 52.8734 67.6735 52.86C67.6371 52.8466 67.6038 52.8259 67.5756 52.7992C67.5491 52.7715 67.5286 52.7388 67.5151 52.703C67.5017 52.6672 67.4957 52.629 67.4974 52.5908V45.5041L65.0012 50.4183C64.9696 50.4991 64.9135 50.5679 64.8408 50.6153C64.7681 50.6626 64.6824 50.6861 64.5958 50.6824H64.3056C64.219 50.6855 64.1336 50.6618 64.061 50.6146C63.9884 50.5673 63.9322 50.4987 63.9001 50.4183L61.4039 45.5041V52.5908C61.4067 52.6292 61.4012 52.6676 61.3878 52.7036C61.3743 52.7397 61.3533 52.7724 61.3262 52.7995C61.299 52.8267 61.2663 52.8477 61.2303 52.8611C61.1943 52.8745 61.1558 52.8801 61.1175 52.8773H60.8794C60.8002 52.8795 60.723 52.8516 60.6636 52.7992Z" fill="#636569"/>
<path d="M70.7636 52.7992C70.7372 52.7715 70.7166 52.7388 70.7032 52.703C70.6898 52.6672 70.6837 52.629 70.6855 52.5908V44.0346C70.6826 43.9542 70.7106 43.8757 70.7636 43.8151C70.7904 43.7873 70.8228 43.7655 70.8588 43.7514C70.8948 43.7373 70.9334 43.7311 70.9719 43.7333H76.0722C76.1129 43.7285 76.1542 43.733 76.1929 43.7465C76.2316 43.7599 76.2668 43.782 76.2958 43.811C76.3248 43.84 76.3468 43.8752 76.3603 43.9139C76.3738 43.9526 76.3783 43.9939 76.3735 44.0346V44.2281C76.3752 44.2669 76.3685 44.3057 76.3537 44.3417C76.3389 44.3776 76.3165 44.41 76.2879 44.4364C76.2594 44.4639 76.2255 44.4853 76.1884 44.4994C76.1513 44.5134 76.1118 44.5199 76.0722 44.5182H71.5076V47.8663H75.782C75.8227 47.8615 75.864 47.8661 75.9027 47.8795C75.9415 47.893 75.9766 47.915 76.0056 47.944C76.0346 47.973 76.0567 48.0082 76.0701 48.0469C76.0836 48.0856 76.0881 48.1269 76.0833 48.1676V48.3611C76.0856 48.4 76.079 48.4389 76.0642 48.475C76.0494 48.511 76.0267 48.5433 75.9978 48.5694C75.939 48.6229 75.8614 48.651 75.782 48.6475H71.5076V52.0812H76.1763C76.2171 52.0792 76.2579 52.0854 76.2962 52.0995C76.3346 52.1135 76.3697 52.1351 76.3995 52.163C76.4267 52.1925 76.4475 52.2271 76.461 52.2648C76.4744 52.3025 76.4801 52.3426 76.4777 52.3825V52.5797C76.4789 52.6185 76.4719 52.6571 76.4572 52.693C76.4424 52.7289 76.4202 52.7613 76.3921 52.788C76.3329 52.8408 76.2556 52.8688 76.1763 52.8661H70.9682C70.9314 52.8691 70.8943 52.8647 70.8592 52.8532C70.8241 52.8417 70.7916 52.8233 70.7636 52.7992Z" fill="#636569"/>
<path d="M78.4456 52.7993C78.4192 52.7716 78.3986 52.7389 78.3852 52.7031C78.3718 52.6673 78.3657 52.6292 78.3675 52.591V44.0347C78.3646 43.9543 78.3926 43.8758 78.4456 43.8152C78.4725 43.7876 78.505 43.766 78.5409 43.7519C78.5769 43.7378 78.6154 43.7315 78.6539 43.7334H78.9292C78.9846 43.7337 79.0391 43.7482 79.0873 43.7756C79.1355 43.8029 79.1758 43.8422 79.2045 43.8897L84.0406 51.2629V44.0273C84.0378 43.9469 84.0657 43.8684 84.1187 43.8078C84.1457 43.7801 84.1782 43.7585 84.2141 43.7444C84.25 43.7303 84.2885 43.724 84.3271 43.726H84.5614C84.6022 43.7212 84.6434 43.7257 84.6822 43.7392C84.7209 43.7526 84.7561 43.7747 84.7851 43.8037C84.8141 43.8327 84.8361 43.8678 84.8496 43.9066C84.863 43.9453 84.8675 43.9866 84.8628 44.0273V52.5835C84.8656 52.664 84.8377 52.7424 84.7846 52.803C84.7577 52.8307 84.7252 52.8523 84.6893 52.8664C84.6534 52.8805 84.6149 52.8868 84.5763 52.8848H84.2899C84.2343 52.8853 84.1796 52.8711 84.1313 52.8436C84.0829 52.8162 84.0427 52.7765 84.0146 52.7286L79.1896 45.3851V52.6021C79.1919 52.641 79.1853 52.6799 79.1705 52.716C79.1557 52.7521 79.133 52.7843 79.1041 52.8104C79.0453 52.8639 78.9677 52.892 78.8883 52.8886H78.6539C78.6149 52.8889 78.5763 52.8811 78.5404 52.8657C78.5046 52.8503 78.4723 52.8277 78.4456 52.7993Z" fill="#636569"/>
<path d="M89.5278 52.7993C89.5014 52.7716 89.4809 52.7389 89.4674 52.7031C89.454 52.6673 89.448 52.6292 89.4497 52.591V44.5109H86.8457C86.8071 44.5129 86.7686 44.5066 86.7327 44.4924C86.6967 44.4783 86.6642 44.4567 86.6373 44.4291C86.6107 44.4016 86.59 44.3689 86.5766 44.333C86.5632 44.2972 86.5572 44.259 86.5592 44.2207V44.0273C86.5564 43.9469 86.5843 43.8684 86.6373 43.8078C86.6642 43.7801 86.6967 43.7585 86.7327 43.7444C86.7686 43.7303 86.8071 43.724 86.8457 43.726H92.835C92.8757 43.7212 92.917 43.7257 92.9557 43.7392C92.9945 43.7526 93.0297 43.7747 93.0586 43.8037C93.0876 43.8327 93.1097 43.8678 93.1231 43.9066C93.1366 43.9453 93.1411 43.9866 93.1363 44.0273V44.2207C93.1381 44.2596 93.1313 44.2984 93.1165 44.3343C93.1017 44.3703 93.0793 44.4026 93.0508 44.4291C93.0223 44.4567 92.9885 44.4783 92.9514 44.4924C92.9143 44.5064 92.8747 44.5127 92.835 44.5109H90.2607V52.591C90.2619 52.6297 90.2549 52.6684 90.2402 52.7043C90.2255 52.7402 90.2033 52.7725 90.1751 52.7993C90.1159 52.8521 90.0387 52.88 89.9594 52.8774H89.725C89.6517 52.8775 89.5812 52.8496 89.5278 52.7993Z" fill="#636569"/>
<path d="M94.2412 49.3991C94.2412 49.1387 94.2412 48.7741 94.2412 48.3017C94.2412 47.8292 94.2412 47.4647 94.2412 47.1857C94.2735 46.0002 94.5959 45.1024 95.2084 44.4923C95.9011 43.9019 96.7815 43.5776 97.6916 43.5776C98.6017 43.5776 99.4821 43.9019 100.175 44.4923C100.785 45.1024 101.109 46.0002 101.146 47.1857C101.146 47.7065 101.172 48.0748 101.172 48.3017C101.172 48.5286 101.172 48.8783 101.146 49.3991C101.084 51.8073 99.933 53.0113 97.6935 53.0113C95.454 53.0113 94.3032 51.8073 94.2412 49.3991ZM99.5684 51.5121C100.033 51.036 100.286 50.3105 100.312 49.3359C100.331 48.8113 100.338 48.4691 100.338 48.3017C100.338 48.1343 100.338 47.792 100.312 47.2675C100.278 46.2928 100.03 45.5674 99.5684 45.0912C99.0542 44.6316 98.3887 44.3775 97.699 44.3775C97.0094 44.3775 96.3439 44.6316 95.8297 45.0912C95.3585 45.5674 95.1105 46.2928 95.0857 47.2675C95.0857 47.5316 95.0857 47.8739 95.0857 48.3017C95.0857 48.7295 95.0857 49.0717 95.0857 49.3359C95.1192 50.3105 95.3721 51.036 95.8297 51.5121C96.3467 51.9721 97.0145 52.2262 97.7065 52.2262C98.3984 52.2262 99.0663 51.9721 99.5833 51.5121H99.5684Z" fill="#636569"/>
<path d="M107.31 52.3341C107.011 52.0962 106.771 51.7924 106.609 51.4465C106.447 51.1006 106.368 50.722 106.376 50.3401C106.372 50.2642 106.397 50.1895 106.447 50.1318C106.473 50.1052 106.504 50.0845 106.539 50.071C106.573 50.0575 106.611 50.0516 106.648 50.0537H106.912C106.949 50.0516 106.986 50.0575 107.021 50.071C107.055 50.0845 107.087 50.1052 107.113 50.1318C107.162 50.1862 107.192 50.2556 107.198 50.329C107.205 50.6067 107.273 50.8795 107.398 51.1274C107.524 51.3752 107.703 51.5918 107.924 51.7612C108.404 52.0851 108.974 52.2479 109.553 52.2262C109.88 52.2438 110.206 52.1858 110.507 52.0568C110.807 51.9278 111.074 51.7311 111.287 51.4822C111.714 50.9222 111.929 50.2289 111.893 49.5254V44.5107H107.057C107.018 44.5127 106.98 44.5064 106.944 44.4923C106.908 44.4782 106.875 44.4566 106.849 44.4289C106.822 44.4014 106.801 44.3687 106.788 44.3329C106.774 44.297 106.768 44.2588 106.77 44.2206V44.0122C106.768 43.9739 106.773 43.9354 106.787 43.8994C106.8 43.8634 106.821 43.8307 106.848 43.8035C106.875 43.7764 106.908 43.7554 106.944 43.742C106.98 43.7285 107.019 43.723 107.057 43.7258H112.406C112.446 43.7234 112.486 43.7291 112.524 43.7425C112.562 43.7559 112.596 43.7768 112.626 43.8039C112.654 43.8332 112.677 43.8683 112.691 43.9068C112.705 43.9452 112.711 43.9862 112.708 44.0271V49.544C112.752 50.4578 112.455 51.3555 111.874 52.0625C111.58 52.3836 111.218 52.6352 110.815 52.7993C110.412 52.9634 109.977 53.0357 109.542 53.0112C108.743 53.0405 107.958 52.8022 107.31 52.3341Z" fill="#636569"/>
<path d="M115.829 52.0999C115.248 51.4935 114.958 50.5747 114.958 49.3359V44.0273C114.955 43.9469 114.983 43.8684 115.036 43.8078C115.064 43.7801 115.097 43.7584 115.134 43.7443C115.17 43.7302 115.209 43.724 115.248 43.726H115.483C115.524 43.7212 115.565 43.7257 115.604 43.7392C115.642 43.7526 115.678 43.7747 115.707 43.8037C115.735 43.8327 115.758 43.8678 115.771 43.9066C115.784 43.9453 115.789 43.9866 115.784 44.0273V49.3731C115.784 50.3329 116.006 51.0484 116.45 51.5196C116.969 51.975 117.636 52.2261 118.327 52.2261C119.017 52.2261 119.685 51.975 120.204 51.5196C120.65 51.0471 120.87 50.3329 120.87 49.3731V44.0273C120.867 43.9861 120.874 43.945 120.888 43.9065C120.903 43.868 120.926 43.8331 120.955 43.8041C121.014 43.7513 121.092 43.7233 121.171 43.726H121.405C121.444 43.7237 121.484 43.7299 121.52 43.744C121.557 43.7581 121.59 43.7799 121.617 43.8078C121.67 43.8684 121.698 43.9469 121.695 44.0273V49.3359C121.695 50.5821 121.405 51.5047 120.832 52.1073C120.259 52.71 119.422 53.0113 118.332 53.0113C117.242 53.0113 116.409 52.7063 115.829 52.0999Z" fill="#636569"/>
<path d="M124.073 52.7993C124.046 52.7716 124.026 52.7389 124.012 52.7031C123.999 52.6673 123.993 52.6292 123.994 52.5909V44.0347C123.992 43.9543 124.02 43.8758 124.073 43.8152C124.099 43.7876 124.132 43.766 124.168 43.7519C124.204 43.7378 124.242 43.7315 124.281 43.7334H127.331C128.124 43.6865 128.907 43.9225 129.541 44.3993C129.816 44.6461 130.03 44.9524 130.168 45.2948C130.306 45.6371 130.364 46.0065 130.337 46.3747C130.364 46.9723 130.184 47.5608 129.828 48.0413C129.451 48.486 128.934 48.7881 128.362 48.8969L130.467 52.4794C130.492 52.5239 130.506 52.5736 130.508 52.6244C130.508 52.6585 130.502 52.6923 130.488 52.7237C130.475 52.755 130.455 52.7833 130.43 52.8067C130.406 52.8316 130.377 52.8514 130.345 52.8648C130.313 52.8782 130.279 52.8851 130.244 52.8848H130.088C129.983 52.8929 129.879 52.8639 129.794 52.803C129.713 52.7235 129.646 52.6318 129.593 52.5314L127.514 49.0159H124.82V52.5984C124.822 52.6372 124.815 52.6758 124.8 52.7117C124.785 52.7476 124.763 52.78 124.735 52.8067C124.675 52.8592 124.598 52.8871 124.519 52.8848H124.281C124.242 52.8856 124.204 52.8784 124.168 52.8637C124.132 52.849 124.1 52.827 124.073 52.7993ZM127.264 48.2236C127.865 48.2691 128.464 48.1048 128.957 47.7585C129.315 47.3829 129.514 46.8841 129.514 46.3654C129.514 45.8467 129.315 45.3478 128.957 44.9722C128.463 44.6273 127.865 44.4643 127.264 44.5109H124.82V48.231L127.264 48.2236Z" fill="#636569"/>
<path d="M132.435 52.7991C132.409 52.7715 132.388 52.7388 132.375 52.703C132.362 52.6672 132.356 52.629 132.357 52.5908V44.0123C132.354 43.974 132.36 43.9355 132.373 43.8995C132.387 43.8635 132.408 43.8308 132.435 43.8036C132.462 43.7764 132.495 43.7554 132.531 43.742C132.567 43.7286 132.605 43.7231 132.644 43.7258H132.893C132.931 43.7239 132.969 43.7298 133.005 43.7432C133.041 43.7567 133.074 43.7773 133.101 43.804C133.129 43.8309 133.151 43.8634 133.165 43.8993C133.179 43.9352 133.185 43.9737 133.183 44.0123V52.5908C133.185 52.6294 133.179 52.6679 133.165 52.7038C133.151 52.7397 133.129 52.7722 133.101 52.7991C133.074 52.8258 133.041 52.8464 133.005 52.8599C132.969 52.8733 132.931 52.8792 132.893 52.8773H132.644C132.606 52.879 132.567 52.873 132.532 52.8596C132.496 52.8461 132.463 52.8256 132.435 52.7991ZM132.409 42.8628C132.408 42.8312 132.414 42.7997 132.425 42.7703C132.437 42.7408 132.454 42.7141 132.476 42.6917L133.377 41.6054C133.433 41.5288 133.503 41.4643 133.585 41.4157C133.672 41.3813 133.766 41.3661 133.86 41.371H134.463C134.497 41.366 134.531 41.369 134.564 41.3797C134.596 41.3905 134.626 41.4087 134.65 41.4329C134.674 41.4572 134.693 41.4867 134.703 41.5192C134.714 41.5518 134.717 41.5864 134.712 41.6203C134.712 41.6495 134.706 41.6784 134.695 41.7053C134.683 41.7321 134.666 41.7564 134.645 41.7765L133.22 42.9409C133.165 42.9841 133.103 43.0191 133.038 43.0451C132.966 43.0656 132.89 43.0744 132.815 43.0711H132.618C132.589 43.0754 132.56 43.073 132.533 43.0641C132.505 43.0552 132.48 43.04 132.46 43.0198C132.439 42.9996 132.424 42.9749 132.414 42.9477C132.405 42.9204 132.402 42.8914 132.406 42.8628H132.409Z" fill="#636569"/>
<path d="M135.75 52.7994C135.724 52.7718 135.703 52.7391 135.69 52.7033C135.676 52.6675 135.67 52.6293 135.672 52.5911V44.0349C135.669 43.9545 135.697 43.876 135.75 43.8154C135.778 43.7875 135.811 43.7657 135.847 43.7516C135.884 43.7375 135.923 43.7313 135.962 43.7336H138.76C139.499 43.6998 140.235 43.8359 140.914 44.1316C141.415 44.3749 141.811 44.7911 142.03 45.3034C142.277 45.9273 142.404 46.5927 142.402 47.2639C142.402 47.5243 142.402 47.8703 142.402 48.2981C142.402 48.7259 142.402 49.0793 142.402 49.3435C142.408 50.0344 142.281 50.7201 142.03 51.3635C141.811 51.8688 141.414 52.2755 140.914 52.5056C140.248 52.7851 139.529 52.9122 138.808 52.8776H135.958C135.92 52.8791 135.882 52.873 135.846 52.8596C135.811 52.8461 135.778 52.8257 135.75 52.7994ZM138.726 52.0926C139.289 52.1172 139.851 52.0221 140.374 51.8136C140.766 51.6373 141.077 51.3198 141.245 50.9245C141.446 50.3961 141.546 49.8345 141.539 49.2691C141.539 49.0087 141.539 48.6813 141.539 48.2907C141.539 47.9001 141.539 47.5839 141.539 47.3197C141.539 46.3451 141.293 45.6308 140.854 45.1844C140.415 44.738 139.682 44.5111 138.663 44.5111H136.479V52.0815L138.726 52.0926Z" fill="#636569"/>
<path d="M144.563 52.7991C144.537 52.7715 144.516 52.7388 144.503 52.7029C144.489 52.6671 144.483 52.629 144.485 52.5908V44.0122C144.482 43.9739 144.488 43.9354 144.501 43.8994C144.514 43.8634 144.535 43.8307 144.563 43.8035C144.59 43.7764 144.622 43.7554 144.658 43.742C144.694 43.7285 144.733 43.723 144.771 43.7258H145.021C145.059 43.7242 145.098 43.7303 145.134 43.7437C145.171 43.7571 145.204 43.7775 145.233 43.8039C145.259 43.8316 145.28 43.8643 145.293 43.9001C145.306 43.9359 145.312 43.974 145.311 44.0122V52.5908C145.312 52.629 145.306 52.6671 145.293 52.7029C145.28 52.7388 145.259 52.7715 145.233 52.7991C145.204 52.8255 145.171 52.846 145.134 52.8594C145.098 52.8728 145.059 52.8788 145.021 52.8772H144.771C144.733 52.879 144.695 52.8729 144.659 52.8595C144.623 52.8461 144.591 52.8255 144.563 52.7991Z" fill="#636569"/>
<path d="M148.294 52.0479C147.696 51.3211 147.372 50.4074 147.379 49.4662C147.379 49.2318 147.379 48.8449 147.379 48.3167C147.379 47.7884 147.379 47.3829 147.379 47.1374C147.373 46.1963 147.697 45.2828 148.294 44.5557C148.863 43.9158 149.712 43.5959 150.846 43.5959C151.516 43.5715 152.182 43.7174 152.781 44.02C153.255 44.2634 153.652 44.6344 153.926 45.0914C154.167 45.4952 154.308 45.9503 154.339 46.4194V46.4455C154.34 46.4785 154.334 46.5113 154.319 46.5411C154.305 46.5709 154.284 46.5968 154.257 46.6166C154.202 46.6595 154.134 46.6818 154.064 46.6798H153.8C153.644 46.6798 153.547 46.5906 153.513 46.4045C153.421 45.7867 153.1 45.2262 152.613 44.8347C152.085 44.5049 151.468 44.3452 150.846 44.3771C150.497 44.3567 150.148 44.4079 149.82 44.5275C149.492 44.6471 149.192 44.8327 148.938 45.0728C148.484 45.534 148.236 46.2446 148.194 47.2044C148.194 47.4387 148.194 47.7996 148.194 48.2906C148.194 48.7817 148.194 49.1463 148.194 49.4067C148.228 50.3664 148.476 51.077 148.938 51.5383C149.191 51.7791 149.491 51.9651 149.82 52.0848C150.148 52.2045 150.497 52.2553 150.846 52.2339C151.468 52.2658 152.085 52.1061 152.613 51.7764C153.1 51.3853 153.422 50.8246 153.513 50.2065C153.547 50.0205 153.644 49.9312 153.8 49.9312H154.064C154.137 49.9288 154.209 49.954 154.265 50.0019C154.292 50.0247 154.313 50.0541 154.326 50.0872C154.339 50.1204 154.344 50.1563 154.339 50.1916C154.308 50.6607 154.167 51.1158 153.926 51.5197C153.652 51.9766 153.255 52.3477 152.781 52.5911C152.182 52.8949 151.517 53.0421 150.846 53.0189C149.712 53.0114 148.863 52.6878 148.294 52.0479Z" fill="#636569"/>
<path d="M156.039 49.399C156.039 49.1386 156.039 48.7741 156.039 48.3016C156.039 47.8292 156.039 47.4646 156.039 47.1856C156.074 46.0001 156.397 45.1023 157.007 44.4922C157.7 43.9016 158.581 43.5771 159.492 43.5771C160.402 43.5771 161.283 43.9016 161.977 44.4922C162.587 45.1023 162.909 46.0001 162.944 47.1856C162.963 47.7064 162.97 48.0747 162.97 48.3016C162.97 48.5285 162.97 48.8782 162.944 49.399C162.882 51.8072 161.731 53.0113 159.492 53.0113C157.252 53.0113 156.101 51.8072 156.039 49.399ZM161.367 51.5121C161.835 51.0359 162.083 50.3105 162.111 49.3358C162.111 48.8113 162.14 48.469 162.14 48.3016C162.14 48.1342 162.14 47.792 162.111 47.2674C162.076 46.2928 161.828 45.5674 161.367 45.0912C160.852 44.6313 160.186 44.3771 159.495 44.3771C158.805 44.3771 158.139 44.6313 157.624 45.0912C157.155 45.5674 156.907 46.2928 156.88 47.2674C156.88 47.5316 156.88 47.8738 156.88 48.3016C156.88 48.7294 156.88 49.0717 156.88 49.3358C156.917 50.3105 157.165 51.0359 157.624 51.5121C158.141 51.972 158.809 52.2261 159.501 52.2261C160.193 52.2261 160.861 51.972 161.378 51.5121H161.367Z" fill="#636569"/>
</svg>
