<svg width="114" height="114" viewBox="0 0 114 114" fill="none" xmlns="http://www.w3.org/2000/svg">
<path d="M10.71 22.2999V87.2999C10.71 87.8622 10.9334 88.4014 11.331 88.799C11.7285 89.1966 12.2678 89.4199 12.83 89.4199H58C58.2788 89.4213 58.5551 89.3673 58.8129 89.2613C59.0707 89.1552 59.3049 88.9991 59.502 88.8019C59.6992 88.6048 59.8553 88.3706 59.9613 88.1128C60.0674 87.855 60.1213 87.5787 60.12 87.2999V54.9399L64.12 52.4699C64.6963 52.2369 65.1982 51.8513 65.5717 51.3544C65.9452 50.8575 66.1763 50.2683 66.24 49.6499V38.1399V34.2999C66.1762 33.6668 65.9467 33.0616 65.5745 32.5455C65.2023 32.0293 64.7006 31.6204 64.12 31.3599L60.12 28.8899V21.8299C60.0227 21.3691 59.7719 20.9549 59.4086 20.6552C59.0453 20.3554 58.591 20.1879 58.12 20.1799H12.84C12.2778 20.1799 11.7385 20.4033 11.341 20.8009C10.9434 21.1984 10.72 21.7377 10.72 22.2999V22.2999H10.71ZM15 24.4199H55.88V30.3199C55.9459 30.9376 56.1777 31.5259 56.551 32.0224C56.9242 32.5189 57.425 32.9051 58 33.1399L62 35.6099V48.2399L58 50.6999C57.4271 50.9207 56.9261 51.2951 56.5521 51.782C56.1781 52.2689 55.9456 52.8495 55.88 53.4599V85.1399H15V24.4199Z" fill="#F5B0B0"/>
<path d="M70.19 52.2198C70.19 52.485 70.0847 52.7394 69.8971 52.9269C69.7096 53.1145 69.4553 53.2198 69.19 53.2198H55.91C56.0438 52.4529 56.4706 51.768 57.1 51.3098H69.24C69.4817 51.321 69.7111 51.4193 69.8857 51.5866C70.0604 51.7539 70.1685 51.9789 70.19 52.2198Z" fill="#F5B0B0"/>
<path d="M70.19 62.7598C70.19 63.025 70.0847 63.2794 69.8971 63.4669C69.7096 63.6545 69.4552 63.7598 69.19 63.7598H55.88V61.8098H69.23C69.4952 61.8098 69.7496 61.9152 69.9371 62.1027C70.1246 62.2902 70.23 62.5446 70.23 62.8098L70.19 62.7598Z" fill="#F5B0B0"/>
<path d="M70.19 68C70.1772 68.2565 70.0662 68.4982 69.88 68.675C69.6938 68.8519 69.4468 68.9504 69.19 68.95H55.89V67.05H69.24C69.4881 67.0622 69.7227 67.1661 69.8983 67.3417C70.0739 67.5173 70.1779 67.752 70.19 68V68Z" fill="#F5B0B0"/>
<path d="M70.19 57.4899C70.1916 57.6194 70.1665 57.7478 70.1162 57.8672C70.0658 57.9865 69.9914 58.0941 69.8975 58.1833C69.8036 58.2725 69.6923 58.3413 69.5706 58.3855C69.4488 58.4296 69.3192 58.4482 69.19 58.4399H55.88V56.5399H69.23C69.3636 56.5311 69.4976 56.5509 69.6229 56.598C69.7482 56.6451 69.8621 56.7185 69.9567 56.8132C70.0514 56.9078 70.1248 57.0217 70.1719 57.147C70.219 57.2723 70.2388 57.4063 70.23 57.5399L70.19 57.4899Z" fill="#F5B0B0"/>
<path d="M61.74 73.3099C61.74 73.5751 61.6346 73.8295 61.4471 74.017C61.2596 74.2045 61.0052 74.3099 60.74 74.3099H55.88V72.4099H60.79C61.0301 72.4207 61.2582 72.5177 61.4327 72.6829C61.6071 72.8482 61.7162 73.0708 61.74 73.3099V73.3099Z" fill="#F5B0B0"/>
<path d="M74.28 80.8999H55.88V85.1299H76.4C76.841 85.1305 77.2711 84.9928 77.6298 84.7363C77.9885 84.4798 78.2579 84.1174 78.4 83.6999V83.6999C78.4714 83.4768 78.5085 83.2442 78.51 83.0099V26.5399C78.51 25.9777 78.2866 25.4384 77.8891 25.0409C77.4915 24.6433 76.9523 24.4199 76.39 24.4199H55.88V28.6599H74.29L74.28 80.8999Z" fill="#F5B0B0"/>
<path d="M58.65 86L64.83 86.5801L82.57 88.2601C82.8413 88.2848 83.1148 88.2557 83.3748 88.1746C83.6348 88.0934 83.8762 87.9617 84.0853 87.7871C84.2943 87.6124 84.4668 87.3982 84.5929 87.1568C84.719 86.9153 84.7961 86.6514 84.82 86.38V86.38L85.55 78.24L89 39.46L89.25 36.46L89.63 32.2901L89.72 31.2901C89.7447 31.018 89.7153 30.7438 89.6335 30.4832C89.5518 30.2225 89.4192 29.9807 89.2435 29.7715C89.0678 29.5624 88.8525 29.3901 88.6099 29.2645C88.3673 29.139 88.1022 29.0627 87.83 29.0401L78.54 28.21L67.81 27.3L67.69 28.66H74.28V32L78.52 32.37L80.61 32.55L85.39 32.98L85.16 35.5801L84.78 39.87L81.5 77.0501L80.87 84L78.4 83.7601L59 81.8701L58.71 85.13L58.65 86Z" fill="#F5B0B0"/>
<path d="M57.4 86L88.08 92.86C88.6143 92.9762 89.1729 92.8764 89.6338 92.5822C90.0947 92.2881 90.4205 91.8235 90.54 91.29V91.29L92.28 83.29L100.54 45.23L102.28 37.23C102.393 36.6933 102.291 36.1335 101.996 35.6714C101.7 35.2093 101.235 34.882 100.7 34.76V34.76L89.62 32.36L81.08 30.49L80.61 32.6L85.39 33.02L85.16 35.63L89.25 36.51L97.79 38.38L96.33 45.14L88.4 81.55L86.93 88.31L84.18 87.69L65.5 83.5L58.28 81.89L57.4 86Z" fill="#F5B0B0"/>
</svg>
