<svg width="100" height="100" viewBox="0 0 100 100" fill="none" xmlns="http://www.w3.org/2000/svg">
<g opacity="0.05">
<path d="M88.2365 91.0266C88.1567 91.0408 87.783 91.1077 87.1758 91.2165C63.2286 95.5086 58.8234 96.2456 58.329 96.303C57.1497 96.4398 56.2686 96.3705 55.6346 96.0912C55.2386 95.9167 55.0241 95.7049 54.9668 95.6116C54.9946 95.446 55.2053 95.051 55.3339 94.8098C55.4591 94.5751 55.6009 94.3092 55.7252 94.0259C56.5493 92.1453 55.9727 90.2377 54.2201 89.0471C52.9133 88.1595 51.1805 87.7992 49.0684 87.9761C47.8076 88.0818 25.7072 91.7868 13.5676 93.8301L7.60898 98.516C21.5051 96.1705 47.9788 91.7288 49.3717 91.5938C50.616 91.4893 51.5868 91.6474 52.18 92.0502C52.5245 92.2843 52.4906 92.3617 52.3999 92.5685C52.3319 92.7238 52.2341 92.9071 52.1306 93.1011C51.7328 93.8468 51.1881 94.868 51.3685 96.133C51.5663 97.5202 52.5876 98.7159 54.1705 99.4134C55.0605 99.8055 56.0819 99.9999 57.2664 99.9999C57.734 99.9999 58.227 99.9696 58.7472 99.9093C59.6997 99.7988 69.4799 98.0764 87.816 94.7899C88.4198 94.6817 88.7914 94.615 88.8708 94.601C89.8579 94.4259 90.516 93.4837 90.3408 92.4965C90.1656 91.5093 89.2241 90.8513 88.2365 91.0266Z" fill="#D7282F"/>
<path d="M23.9754 73.3869L8.55529 89.5168C6.85697 91.2934 5.66068 93.489 5.08884 95.8792L26.9842 78.6605C33.8386 81.7 39.3138 82.6682 43.51 82.6682C50.8822 82.6682 54.3043 79.6781 54.3043 79.6781C47.4414 76.1068 46.4634 69.4417 46.4634 69.4417C51.7198 71.664 62.6692 74.2835 62.6692 74.2835C77.2103 64.5785 84.8097 43.566 84.8097 43.566C83.3041 43.9799 81.8644 44.1523 80.5076 44.1523C73.6829 44.1523 68.994 39.7823 68.994 39.7823L87.9909 35.6451C94.307 22.6861 94.9112 0 94.9112 0L37.1525 51.3716C30.6115 57.1892 26.0122 64.8733 23.9754 73.3869Z" fill="#D7282F"/>
</g>
</svg>
