<svg width="114" height="114" viewBox="0 0 114 114" fill="none" xmlns="http://www.w3.org/2000/svg">
<path d="M89.54 80.39L76.25 22.58C76.25 22.58 76.25 22.58 76.25 22.52C76.1936 22.313 76.1095 22.1145 76 21.93C76.0019 21.9034 76.0019 21.8767 76 21.85C75.8819 21.6721 75.7406 21.5107 75.58 21.37L75.46 21.28C75.2974 21.1514 75.1151 21.0501 74.92 20.98L74.77 20.93C74.5818 20.8717 74.3868 20.8381 74.19 20.83H70.79L70.65 20.22C70.5428 19.7618 70.2586 19.3647 69.8595 19.1154C69.4603 18.8662 68.9787 18.7852 68.52 18.89C68.0969 18.9904 67.7263 19.2446 67.4804 19.6033C67.2346 19.9619 67.131 20.3992 67.19 20.83H64.25L64.11 20.22C64.0291 19.7599 63.7687 19.3507 63.3861 19.0825C63.0036 18.8144 62.5301 18.7091 62.07 18.79C61.6098 18.8709 61.2006 19.1313 60.9325 19.5139C60.6643 19.8965 60.5591 20.3699 60.64 20.83H57.71L57.57 20.21C57.4672 19.7712 57.2 19.3885 56.8234 19.1408C56.4468 18.8932 55.9896 18.7994 55.5459 18.8789C55.1022 18.9584 54.706 19.2051 54.4388 19.5681C54.1717 19.9311 54.054 20.3828 54.11 20.83H51.17L51 20.21C50.8952 19.7744 50.6283 19.3951 50.2535 19.1494C49.8788 18.9038 49.4244 18.8104 48.9832 18.8882C48.5419 18.966 48.1469 19.2091 47.8787 19.5681C47.6106 19.9271 47.4894 20.3748 47.54 20.82H44.63L44.49 20.21C44.3852 19.7744 44.1183 19.3951 43.7435 19.1494C43.3688 18.9038 42.9144 18.8104 42.4732 18.8882C42.0319 18.966 41.6369 19.2091 41.3687 19.5681C41.1006 19.9271 40.9794 20.3748 41.03 20.82H38.1L38 20.21C37.8905 19.7606 37.6095 19.3718 37.217 19.127C36.8245 18.8821 36.3518 18.8007 35.9 18.9C35.4741 18.9917 35.0981 19.2398 34.8463 19.5953C34.5944 19.9508 34.4851 20.3879 34.54 20.82H31.56L31.42 20.21C31.3152 19.7744 31.0483 19.3951 30.6735 19.1494C30.2988 18.9038 29.8444 18.8104 29.4032 18.8882C28.9619 18.966 28.5669 19.2091 28.2987 19.5681C28.0306 19.9271 27.9094 20.3748 27.96 20.82H25.71C25.5386 20.8169 25.3675 20.8337 25.2 20.87C24.8543 20.9543 24.5328 21.1173 24.2604 21.3462C23.9881 21.5752 23.7723 21.864 23.63 22.19V22.19C23.5862 22.3 23.5527 22.4139 23.53 22.53V22.62C23.5201 22.7231 23.5201 22.8269 23.53 22.93C23.53 22.98 23.53 23.02 23.53 23.07V92C23.53 92.299 23.589 92.595 23.7037 92.871C23.8184 93.1471 23.9865 93.3978 24.1984 93.6087C24.4102 93.8196 24.6616 93.9866 24.9382 94.1001C25.2148 94.2136 25.511 94.2714 25.81 94.27H74.05C74.348 94.2714 74.6433 94.2135 74.9187 94.0998C75.1942 93.986 75.4443 93.8187 75.6546 93.6075C75.8648 93.3963 76.031 93.1455 76.1435 92.8695C76.2561 92.5936 76.3126 92.298 76.31 92V83.18H87.31C87.6098 83.1801 87.9066 83.1207 88.1833 83.0053C88.46 82.89 88.7112 82.721 88.9222 82.5081C89.1333 82.2952 89.3001 82.0426 89.4129 81.7649C89.5258 81.4871 89.5826 81.1898 89.58 80.89C89.5953 80.7237 89.5953 80.5564 89.58 80.39H89.54ZM71.76 89.67H28V43.2L36.78 81.42C36.8973 81.9208 37.1804 82.3672 37.5834 82.6867C37.9865 83.0062 38.4857 83.1801 39 83.18H71.76V89.67ZM40.82 78.67L28.57 25.37H29L29.13 25.97C29.2186 26.3624 29.4382 26.7129 29.7527 26.9637C30.0672 27.2146 30.4577 27.3508 30.86 27.35C31.1126 27.3546 31.3632 27.3038 31.5941 27.2011C31.825 27.0985 32.0305 26.9465 32.1964 26.7558C32.3622 26.5652 32.4843 26.3406 32.554 26.0977C32.6238 25.8548 32.6394 25.5996 32.6 25.35H35.5L35.64 25.95C35.7286 26.3424 35.9482 26.6929 36.2627 26.9437C36.5772 27.1946 36.9677 27.3308 37.37 27.33C37.5029 27.3448 37.637 27.3448 37.77 27.33C38.1938 27.2298 38.5653 26.9759 38.8128 26.6176C39.0603 26.2593 39.1662 25.8219 39.11 25.39H42L42.14 25.99C42.2286 26.3824 42.4482 26.7329 42.7627 26.9837C43.0772 27.2346 43.4677 27.3708 43.87 27.37C43.9995 27.3848 44.1304 27.3848 44.26 27.37C44.6826 27.2678 45.0529 27.0134 45.3 26.6556C45.5472 26.2978 45.6539 25.8615 45.6 25.43H48.54L48.67 26.03C48.7749 26.4901 49.0582 26.8897 49.4576 27.141C49.857 27.3922 50.3398 27.4746 50.8 27.37C51.2238 27.2698 51.5953 27.0159 51.8428 26.6576C52.0903 26.2993 52.1962 25.8619 52.14 25.43H55.08L55.21 26.03C55.306 26.4806 55.5768 26.8747 55.963 27.1259C56.3491 27.3771 56.8192 27.4649 57.27 27.37H57.34C57.7607 27.2679 58.1295 27.0151 58.3764 26.6594C58.6233 26.3038 58.7313 25.87 58.68 25.44H61.62L61.76 26.04C61.8662 26.473 62.1328 26.8495 62.5059 27.0935C62.879 27.3375 63.3307 27.4309 63.77 27.3547C64.2092 27.2785 64.6032 27.0385 64.8723 26.6831C65.1415 26.3278 65.2657 25.8835 65.22 25.44H68.2L68.34 26.04C68.4286 26.4324 68.6482 26.7829 68.9627 27.0337C69.2772 27.2846 69.6677 27.4208 70.07 27.42C70.2029 27.4343 70.337 27.4343 70.47 27.42C70.8926 27.3178 71.2629 27.0634 71.51 26.7056C71.7572 26.3478 71.8639 25.9115 71.81 25.48H72.23L84.47 78.63L40.82 78.67Z" fill="#F5B0B0"/>
<path d="M71.45 41.9101C71.45 41.721 71.4123 41.5339 71.3391 41.3596C71.2658 41.1854 71.1586 41.0275 71.0235 40.8952C70.8884 40.763 70.7283 40.659 70.5526 40.5894C70.3768 40.5198 70.1889 40.4861 70 40.4901H38C37.6233 40.4901 37.2622 40.6397 36.9959 40.906C36.7296 41.1723 36.58 41.5335 36.58 41.9101C36.58 42.2867 36.7296 42.6479 36.9959 42.9142C37.2622 43.1805 37.6233 43.3301 38 43.3301H70C70.3758 43.3274 70.7354 43.177 71.0012 42.9113C71.2669 42.6455 71.4173 42.2859 71.42 41.9101H71.45Z" fill="#F5B0B0"/>
<path d="M39.8599 50C39.4833 50 39.1222 50.1496 38.8559 50.4159C38.5895 50.6822 38.4399 51.0434 38.4399 51.42C38.4399 51.7966 38.5895 52.1578 38.8559 52.4241C39.1222 52.6904 39.4833 52.84 39.8599 52.84H71.8599C72.2366 52.84 72.5977 52.6904 72.864 52.4241C73.1303 52.1578 73.2799 51.7966 73.2799 51.42C73.2799 51.0434 73.1303 50.6822 72.864 50.4159C72.5977 50.1496 72.2366 50 71.8599 50H39.8599Z" fill="#F5B0B0"/>
<path d="M40.6599 61.0001C40.6586 61.1869 40.6944 61.3722 40.7653 61.5451C40.8362 61.7179 40.9408 61.875 41.0729 62.0071C41.205 62.1393 41.3621 62.2438 41.535 62.3147C41.7078 62.3856 41.8931 62.4214 42.0799 62.4201H73.9999C74.3766 62.4201 74.7377 62.2705 75.004 62.0042C75.2703 61.7379 75.4199 61.3767 75.4199 61.0001C75.4199 60.6235 75.2703 60.2623 75.004 59.996C74.7377 59.7297 74.3766 59.5801 73.9999 59.5801H41.9999C41.6374 59.6005 41.2964 59.7591 41.0472 60.0232C40.7979 60.2874 40.6594 60.6369 40.6599 61.0001V61.0001Z" fill="#F5B0B0"/>
</svg>
