<svg width="114" height="114" viewBox="0 0 114 114" fill="none" xmlns="http://www.w3.org/2000/svg">
<path d="M56.86 91.3999L40.21 74.7399C43.0963 70.7461 44.3688 65.8099 43.7731 60.9184C43.1775 56.0269 40.7575 51.5404 36.997 48.356C33.2365 45.1715 28.4126 43.5238 23.4898 43.7421C18.567 43.9605 13.9079 46.0289 10.4442 49.5338C6.98041 53.0387 4.96716 57.7218 4.80692 62.6469C4.64669 67.5719 6.35127 72.376 9.57989 76.0986C12.8085 79.8213 17.3232 82.1881 22.2215 82.726C27.1197 83.2639 32.0404 81.9332 36 78.9999L52.65 95.6099C53.2096 96.1703 53.9681 96.4866 54.76 96.4899C55.3454 96.4858 55.9168 96.3104 56.4038 95.9855C56.8907 95.6605 57.272 95.2002 57.5005 94.6613C57.7291 94.1223 57.795 93.5282 57.69 92.9523C57.5851 92.3763 57.3139 91.8437 56.91 91.4199V91.4199C56.91 91.4199 56.88 91.3999 56.86 91.3999ZM13.72 73.9999C11.5902 71.8699 10.1399 69.1562 9.55246 66.2019C8.96498 63.2476 9.26671 60.1855 10.4195 57.4027C11.5723 54.6199 13.5244 52.2414 16.0289 50.568C18.5334 48.8946 21.4779 48.0015 24.49 48.0015C27.5021 48.0015 30.4466 48.8946 32.9511 50.568C35.4556 52.2414 37.4077 54.6199 38.5605 57.4027C39.7132 60.1855 40.015 63.2476 39.4275 66.2019C38.84 69.1562 37.3897 71.8699 35.26 73.9999V73.9999C33.8457 75.4144 32.1667 76.5364 30.3187 77.302C28.4708 78.0675 26.4902 78.4615 24.49 78.4615C22.4898 78.4615 20.5091 78.0675 18.6612 77.302C16.8133 76.5364 15.1342 75.4144 13.72 73.9999V73.9999Z" fill="#F5B0B0"/>
<path d="M29.94 75.0799C29.8422 74.8496 29.6616 74.6643 29.4339 74.5606C29.2062 74.457 28.9479 74.4424 28.71 74.5199C25.7072 75.6341 22.3856 75.5154 19.47 74.1899C19.353 74.0866 19.2136 74.0122 19.0628 73.9724C18.9119 73.9327 18.7539 73.9288 18.6013 73.9611C18.4487 73.9933 18.3058 74.0608 18.1839 74.1581C18.062 74.2555 17.9646 74.38 17.8995 74.5217C17.8343 74.6634 17.8032 74.8184 17.8087 74.9743C17.8141 75.1302 17.8559 75.2826 17.9308 75.4195C18.0056 75.5563 18.1115 75.6737 18.2398 75.7623C18.3682 75.851 18.5155 75.9083 18.67 75.9299C22.0454 77.4692 25.8938 77.6059 29.37 76.3099C29.4876 76.2676 29.5956 76.2022 29.6877 76.1177C29.7797 76.0331 29.854 75.9311 29.9062 75.8175C29.9583 75.7039 29.9873 75.581 29.9914 75.4561C29.9954 75.3311 29.9746 75.2066 29.93 75.0899V75.0899L29.94 75.0799Z" fill="#F5B0B0"/>
<path d="M65.7199 18.89C64.1169 17.3513 61.9689 16.5114 59.7474 16.5546C57.5258 16.5977 55.4121 17.5203 53.8699 19.12V19.12C53.1023 19.9137 52.4992 20.8513 52.0951 21.8789C51.691 22.9065 51.494 24.0038 51.5154 25.1078C51.5367 26.2118 51.7761 27.3006 52.2196 28.3118C52.6632 29.323 53.3022 30.2365 54.0999 31V31C54.896 31.7687 55.8365 32.3721 56.867 32.7755C57.8975 33.1788 58.9977 33.374 60.1041 33.3498C61.2105 33.3256 62.3011 33.0826 63.3131 32.6346C64.325 32.1867 65.2382 31.5427 65.9999 30.74V30.74C66.763 29.9468 67.3624 29.0112 67.7638 27.9864C68.1652 26.9616 68.3608 25.8677 68.3395 24.7673C68.3181 23.6669 68.0802 22.5815 67.6393 21.5731C67.1984 20.5646 66.5632 19.6529 65.7699 18.89H65.7199ZM56.9999 28C56.5934 27.6169 56.2672 27.1568 56.0403 26.6464C55.8134 26.136 55.6903 25.5856 55.6782 25.0272C55.6661 24.4688 55.7652 23.9135 55.9698 23.3938C56.1744 22.8741 56.4804 22.4003 56.8699 22V22C57.2537 21.5947 57.7141 21.2695 58.2244 21.0434C58.7347 20.8172 59.2848 20.6945 59.8428 20.6824C60.4008 20.6704 60.9557 20.7691 61.4753 20.9729C61.995 21.1768 62.469 21.4817 62.8699 21.87V21.87C63.2708 22.2533 63.5921 22.7118 63.8156 23.2194C64.0391 23.7269 64.1603 24.2736 64.1724 24.828C64.1845 25.3825 64.0871 25.9339 63.8859 26.4507C63.6848 26.9675 63.3837 27.4396 62.9999 27.84V27.84C62.6189 28.2485 62.1604 28.5771 61.6511 28.8066C61.1418 29.0362 60.5919 29.1621 60.0335 29.1769C59.475 29.1918 58.9192 29.0954 58.3984 28.8934C57.8776 28.6913 57.4022 28.3876 56.9999 28V28Z" fill="#F5B0B0"/>
<path d="M102 51.51C103.057 51.204 104.044 50.6929 104.903 50.0056C105.763 49.3184 106.479 48.4686 107.01 47.5047C107.541 46.5408 107.877 45.4818 107.999 44.388C108.121 43.2942 108.026 42.1871 107.72 41.13V41.13C107.098 38.996 105.654 37.1962 103.706 36.1256C101.758 35.055 99.465 34.8012 97.33 35.42V35.42C95.1968 36.0399 93.397 37.4816 92.3263 39.428C91.2556 41.3744 91.0016 43.6663 91.62 45.8V45.8C92.24 47.9332 93.6816 49.7329 95.628 50.8037C97.5744 51.8744 99.8663 52.1284 102 51.51V51.51ZM98.48 39.42C99.5528 39.1105 100.704 39.2388 101.683 39.7767C102.661 40.3146 103.387 41.2184 103.7 42.29V42.29C103.882 42.8284 103.953 43.3981 103.908 43.9647C103.864 44.5312 103.705 45.083 103.442 45.5866C103.179 46.0902 102.816 46.5353 102.376 46.8951C101.936 47.2548 101.428 47.5218 100.882 47.6799C100.336 47.838 99.764 47.8839 99.1999 47.8149C98.6358 47.7459 98.0915 47.5634 97.5999 47.2785C97.1082 46.9935 96.6793 46.6119 96.339 46.1567C95.9988 45.7016 95.7542 45.1822 95.62 44.63V44.63C95.3108 43.5585 95.4393 42.4082 95.9774 41.4314C96.5155 40.4546 97.4191 39.7312 98.49 39.42V39.42H98.48Z" fill="#F5B0B0"/>
<path d="M62.72 58.47C62.2018 58.6573 61.7791 59.0427 61.5447 59.5414C61.3104 60.0401 61.2835 60.6115 61.47 61.13V61.13C61.5627 61.3877 61.7054 61.6246 61.8899 61.8271C62.0745 62.0295 62.2972 62.1936 62.5453 62.3097C62.7934 62.4258 63.0619 62.4918 63.3356 62.5039C63.6093 62.516 63.8826 62.4739 64.14 62.38L93.65 49.27C94.1698 49.0817 94.5935 48.6946 94.8279 48.1939C95.0624 47.6931 95.0883 47.1198 94.9 46.6C94.7117 46.0802 94.3246 45.6564 93.8239 45.422C93.3231 45.1876 92.7498 45.1617 92.23 45.35V45.35L62.72 58.47Z" fill="#F5B0B0"/>
<path d="M55.1 55.49C55.0593 55.7606 55.0722 56.0365 55.1382 56.302C55.2041 56.5675 55.3216 56.8174 55.4841 57.0375C55.6466 57.2576 55.8509 57.4435 56.0852 57.5846C56.3196 57.7257 56.5795 57.8193 56.85 57.86C57.1205 57.9008 57.3964 57.8878 57.6619 57.8219C57.9274 57.756 58.1773 57.6384 58.3974 57.4759C58.6175 57.3134 58.8034 57.1091 58.9445 56.8748C59.0857 56.6404 59.1793 56.3806 59.22 56.11L61.1 32.11C61.1411 31.8395 61.1285 31.5634 61.0627 31.2978C60.997 31.0321 60.8795 30.782 60.7169 30.5618C60.5543 30.3416 60.3499 30.1557 60.1153 30.0147C59.8808 29.8737 59.6207 29.7804 59.35 29.74V29.74C58.8051 29.6629 58.2519 29.8048 57.8114 30.1346C57.371 30.4645 57.0792 30.9555 57 31.5L55.1 55.49Z" fill="#F5B0B0"/>
<path d="M49.16 61.6799C48.592 63.8267 48.8984 66.1111 50.0118 68.0324C51.1252 69.9537 52.955 71.3553 55.1 71.9299C57.2455 72.5009 59.53 72.1972 61.4517 71.0854C63.3735 69.9736 64.7755 68.1445 65.35 65.9999V65.9999C65.6356 64.9368 65.7087 63.8279 65.5651 62.7365C65.4216 61.6451 65.0641 60.5928 64.5133 59.6398C63.9625 58.6868 63.2291 57.8517 62.3551 57.1825C61.4811 56.5133 60.4837 56.0231 59.42 55.7399V55.7399C57.2758 55.1719 54.9939 55.4771 53.0745 56.5887C51.155 57.7003 49.7545 59.5275 49.18 61.6699L49.16 61.6799ZM61.33 64.9199C61.1185 65.7254 60.673 66.4501 60.0496 67.0024C59.4262 67.5546 58.6531 67.9096 57.8279 68.0223C57.0028 68.1351 56.1628 68.0006 55.4141 67.6359C54.6654 67.2711 54.0417 66.6926 53.6219 65.9733C53.2021 65.254 53.0051 64.4264 53.0557 63.5952C53.1063 62.7639 53.4023 61.9663 53.9063 61.3033C54.4103 60.6403 55.0996 60.1417 55.887 59.8706C56.6745 59.5994 57.5246 59.5678 58.33 59.7799C59.4092 60.0641 60.3313 60.7651 60.8939 61.7289C61.4564 62.6928 61.6133 63.8405 61.33 64.9199V64.9199Z" fill="#F5B0B0"/>
<path d="M92.3999 40.31C92.8192 40.6676 93.3632 40.8442 93.9125 40.8011C94.4619 40.758 94.9716 40.4986 95.3299 40.08V40.08C95.5085 39.8722 95.6443 39.6311 95.7294 39.3706C95.8146 39.1101 95.8474 38.8354 95.826 38.5622C95.8046 38.289 95.7295 38.0227 95.6049 37.7787C95.4803 37.5346 95.3087 37.3175 95.0999 37.14V37.14L66.3799 27.14C66.1729 26.9617 65.9327 26.8261 65.673 26.7411C65.4133 26.6561 65.1394 26.6234 64.867 26.6448C64.5947 26.6662 64.3292 26.7412 64.086 26.8657C63.8428 26.9902 63.6266 27.1616 63.4499 27.37C63.2716 27.577 63.1361 27.8173 63.0511 28.0769C62.9661 28.3366 62.9333 28.6105 62.9547 28.8829C62.9761 29.1553 63.0512 29.4207 63.1757 29.664C63.3001 29.9072 63.4715 30.1233 63.6799 30.3V30.3L92.3999 40.31Z" fill="#F5B0B0"/>
</svg>
