<svg width="114" height="114" viewBox="0 0 114 114" fill="none" xmlns="http://www.w3.org/2000/svg">
<path d="M13.8101 23.6802V43.3802H58.1101V34.2802H79.4501V23.6902L13.8101 23.6802ZM53.7601 40.0002H19.2301C18.803 39.9673 18.4041 39.7745 18.1131 39.4603C17.822 39.146 17.6603 38.7335 17.6603 38.3052C17.6603 37.8769 17.822 37.4643 18.1131 37.1501C18.4041 36.8358 18.803 36.643 19.2301 36.6102H53.7701C54.2183 36.6102 54.6481 36.7882 54.9651 37.1052C55.282 37.4221 55.4601 37.852 55.4601 38.3002V38.3002C55.4601 38.7493 55.2823 39.1802 54.9657 39.4987C54.649 39.8173 54.2192 39.9975 53.7701 40.0002V40.0002H53.7601ZM74.1001 30.6102H19.2301C19.0073 30.6115 18.7864 30.5688 18.5803 30.4844C18.3741 30.4001 18.1866 30.2758 18.0286 30.1187C17.8706 29.9617 17.7452 29.7749 17.6597 29.5692C17.5741 29.3635 17.5301 29.143 17.5301 28.9202V28.9202C17.5301 28.471 17.7078 28.0401 18.0244 27.7216C18.3411 27.4031 18.7709 27.2228 19.2201 27.2202H74.1001C74.5509 27.2202 74.9833 27.3993 75.3021 27.7181C75.6209 28.0369 75.8001 28.4693 75.8001 28.9202C75.8001 29.371 75.6209 29.8034 75.3021 30.1223C74.9833 30.4411 74.5509 30.6202 74.1001 30.6202V30.6102Z" fill="#F5B0B0"/>
<path d="M70.3601 55.7302C70.0744 55.7292 69.7967 55.6363 69.568 55.4652C69.3392 55.2941 69.1717 55.0539 69.0901 54.7802L66.3801 45.5402C66.315 45.3137 66.3112 45.0739 66.3692 44.8455C66.4272 44.6171 66.5448 44.4082 66.7101 44.2402L73.5701 37.3602C73.6927 37.2371 73.8384 37.1395 73.9989 37.0728C74.1593 37.0062 74.3313 36.9719 74.5051 36.9719C74.6788 36.9719 74.8508 37.0062 75.0113 37.0728C75.1717 37.1395 75.3174 37.2371 75.4401 37.3602C75.5717 37.4942 75.6739 37.6543 75.7401 37.8302L80.5701 51.0002C80.69 51.3291 80.6754 51.6922 80.5294 52.0104C80.3833 52.3287 80.1177 52.5765 79.7901 52.7002L70.7901 55.7002C70.6491 55.7321 70.5041 55.7423 70.3601 55.7302V55.7302Z" fill="#F5B0B0"/>
<path d="M99.1201 88.1902L91.0701 63.8302C91.0701 63.8302 91.0701 63.7602 91.0701 63.7202L91.0001 63.5502C91.0001 63.4602 83.4101 50.9302 83.3801 50.8602C83.1515 50.3844 82.7574 50.0081 82.2714 49.802C81.7855 49.5958 81.241 49.5739 80.7401 49.7402L68.3001 53.8402C67.7995 54.0077 67.3771 54.3519 67.112 54.8085C66.847 55.265 66.7574 55.8024 66.8601 56.3202C66.8601 56.4002 68.2601 70.9502 68.2801 71.0502C68.3001 71.1502 68.2801 71.1802 68.2801 71.2402C68.2767 71.2768 68.2767 71.3136 68.2801 71.3502L76.2801 95.7202C76.4627 96.2672 76.8546 96.7195 77.3701 96.9782C77.8855 97.2368 78.4824 97.2807 79.0301 97.1002L97.6901 90.9402C98.235 90.7573 98.6861 90.3675 98.9462 89.8549C99.2062 89.3423 99.2543 88.748 99.0801 88.2002L99.1201 88.1902ZM80.2701 54.4502C81.8517 57.5235 83.6114 60.5019 85.5401 63.3702L72.4801 67.6802C72.3197 64.2256 71.9591 60.7831 71.4001 57.3702L80.2701 54.4502ZM79.7801 92.2902L73.1101 72.0502L87.6501 67.2502L94.3301 87.4902L79.7801 92.2902Z" fill="#F5B0B0"/>
<path d="M53.76 49.3701H19.23C18.7818 49.3701 18.352 49.1921 18.035 48.8751C17.7181 48.5582 17.54 48.1283 17.54 47.6801C17.54 47.4587 17.5838 47.2394 17.6689 47.0349C17.7539 46.8304 17.8786 46.6448 18.0356 46.4886C18.1927 46.3325 18.3791 46.209 18.5841 46.1251C18.789 46.0413 19.0086 45.9988 19.23 46.0001H53.76C53.9936 45.9822 54.2283 46.0127 54.4495 46.0897C54.6707 46.1668 54.8736 46.2887 55.0454 46.4478C55.2173 46.607 55.3544 46.7999 55.4482 47.0146C55.5419 47.2292 55.5903 47.4609 55.5903 47.6951C55.5903 47.9293 55.5419 48.161 55.4482 48.3757C55.3544 48.5903 55.2173 48.7833 55.0454 48.9424C54.8736 49.1016 54.6707 49.2235 54.4495 49.3005C54.2283 49.3776 53.9936 49.4081 53.76 49.3901V49.3701Z" fill="#F5B0B0"/>
<path d="M75 21.2301H19.23C18.7792 21.2301 18.3468 21.051 18.0279 20.7322C17.7091 20.4133 17.53 19.9809 17.53 19.5301C17.53 19.0792 17.7091 18.6468 18.0279 18.328C18.3468 18.0092 18.7792 17.8301 19.23 17.8301H74.94C75.3909 17.8301 75.8233 18.0092 76.1421 18.328C76.4609 18.6468 76.64 19.0792 76.64 19.5301C76.64 19.9809 76.4609 20.4133 76.1421 20.7322C75.8233 21.051 75.3909 21.2301 74.94 21.2301H75Z" fill="#F5B0B0"/>
</svg>
