<svg xmlns:xlink="http://www.w3.org/1999/xlink" xmlns="http://www.w3.org/2000/svg" id="Layer_1" data-name="Layer 1" viewBox="0 0 113.04 113.04" width="113.04"  height="113.04" ><defs><style>.cls-1{fill:#002d5e;}</style></defs><title>revistas</title><g id="Grupo_300" data-name="Grupo 300"><g id="Grupo_299" data-name="Grupo 299"><path id="Caminho_547" data-name="Caminho 547" class="cls-1" d="M61,40.11V76.58a.63.63,0,1,0,1.25,0V40.11a.63.63,0,0,0-1.25,0Z"/><path id="Caminho_548" data-name="Caminho 548" class="cls-1" d="M61.65,79.07a.63.63,0,0,0-.62.63h0v5.23a.62.62,0,0,0,.62.62.62.62,0,0,0,.62-.62V79.7a.63.63,0,0,0-.62-.63Z"/><path id="Caminho_549" data-name="Caminho 549" class="cls-1" d="M61.65,87.36A.61.61,0,0,0,61,88v.69a.62.62,0,0,0,.62.62.62.62,0,0,0,.62-.62V88a.62.62,0,0,0-.62-.62Z"/><path id="Caminho_550" data-name="Caminho 550" class="cls-1" d="M101.52,28a1.52,1.52,0,0,0-1.28-.33L84.32,30.61V25.83a1.56,1.56,0,0,0-1.56-1.56l-.28,0L66.56,27.23V22.45A1.56,1.56,0,0,0,65,20.89a1.27,1.27,0,0,0-.28,0L48.8,23.85V19.54A1.58,1.58,0,0,0,47,18L12.23,24.55A1.56,1.56,0,0,0,11,26.09V84.42a1.55,1.55,0,0,0,1.18,1.51l13.61,3.4a1.63,1.63,0,0,0,.66,0l2.32-.43A1.55,1.55,0,0,0,29.9,90.4l13.61,3.4a1.58,1.58,0,0,0,.38,0,1.32,1.32,0,0,0,.28,0l2.33-.43a1.56,1.56,0,0,0,1.16,1.41l13.61,3.4a1.23,1.23,0,0,0,.38,0,.86.86,0,0,0,.28,0l38.88-7.17a1.55,1.55,0,0,0,1.27-1.53V29.2A1.55,1.55,0,0,0,101.52,28ZM81.21,31.18,61.65,34.79,52.34,33,81.21,27.7ZM63.44,27.81l-19.55,3.6-9.31-1.76,28.86-5.33ZM45.71,24.42,26.13,28l-7.74-1.47,27.29-5.14v2.73a1.12,1.12,0,0,0,0,.27ZM26.18,86.23l-12.11-3V28.91l11.76,2.24a1.88,1.88,0,0,0,.58,0l2.31-.43v55ZM43.94,90.7l-12.11-3V32.29L43.6,34.53a1.37,1.37,0,0,0,.57,0l2.31-.42V90.23Zm55-2.47L61.7,95.1l-12.11-3V35.67L61.36,37.9a1.37,1.37,0,0,0,.57,0l37-6.83Z"/><path id="Caminho_551" data-name="Caminho 551" class="cls-1" d="M58.54,43.93l-6-1.14a.94.94,0,0,0-.77.2,1,1,0,0,0-.34.72v6.11a.94.94,0,1,0,1.87,0v-5l4.86.93a.94.94,0,0,0,.41-1.83Z"/><path id="Caminho_552" data-name="Caminho 552" class="cls-1" d="M43.89,36.11a.62.62,0,0,0-.62.62V72.18a.62.62,0,1,0,1.24,0V36.73A.62.62,0,0,0,43.89,36.11Z"/><path id="Caminho_553" data-name="Caminho 553" class="cls-1" d="M43.89,74.67a.62.62,0,0,0-.62.62h0v5.23a.62.62,0,1,0,1.24,0V75.3a.63.63,0,0,0-.62-.63Z"/><path id="Caminho_554" data-name="Caminho 554" class="cls-1" d="M43.89,83a.62.62,0,0,0-.62.62h0v.68a.62.62,0,1,0,1.24,0v-.68a.63.63,0,0,0-.62-.63Z"/><path id="Caminho_555" data-name="Caminho 555" class="cls-1" d="M40.6,40.53a.94.94,0,0,0-.93.94v5l-4.86-.92a.93.93,0,0,0-.35,1.83h0l6,1.14.17,0a1,1,0,0,0,.94-.94V41.47a.94.94,0,0,0-.93-.94Z"/><path id="Caminho_556" data-name="Caminho 556" class="cls-1" d="M26.12,32.73a.62.62,0,0,0-.62.62V67.71a.63.63,0,1,0,1.25,0V33.35A.63.63,0,0,0,26.12,32.73Z"/><path id="Caminho_557" data-name="Caminho 557" class="cls-1" d="M26.12,70.21a.62.62,0,0,0-.62.62v5.23a.63.63,0,0,0,1.25,0V70.83a.62.62,0,0,0-.62-.62Z"/><path id="Caminho_558" data-name="Caminho 558" class="cls-1" d="M26.12,78.49a.62.62,0,0,0-.62.62v.69a.63.63,0,0,0,1.25,0v-.69A.62.62,0,0,0,26.12,78.49Z"/><path id="Caminho_559" data-name="Caminho 559" class="cls-1" d="M23.72,37.81a.77.77,0,0,0-.07-.16.75.75,0,0,0-.23-.27.71.71,0,0,0-.14-.1l-.17-.07-.1,0-6-1.13a.93.93,0,0,0-1.09.74,1,1,0,0,0,0,.17v6.12a.94.94,0,0,0,1.87,0v-5l4.1.78V44.2a.93.93,0,1,0,1.86,0h0V38.09s0-.07,0-.1A1.16,1.16,0,0,0,23.72,37.81Z"/></g></g></svg>