<svg xmlns="http://www.w3.org/2000/svg" xmlns:xlink="http://www.w3.org/1999/xlink" version="1.1" id="Layer_1" x="0px" y="0px" viewBox="0 0 113 113" style="enable-background:new 0 0 113 113;" xml:space="preserve" width="113"  height="113" >
<style type="text/css">
	.st0{fill:#002D5E;}
</style>
<title>revistas</title>
<g id="Grupo_298">
	<g id="Grupo_297">
		<path id="Caminho_541" class="st0" d="M85.1,73h-5.2c-0.4,0-0.7,0.3-0.7,0.7c0,0.4,0.3,0.7,0.7,0.7h5.2c0.4,0,0.7-0.3,0.7-0.7l0,0    C85.8,73.3,85.5,73,85.1,73L85.1,73L85.1,73z"/>
		<path id="Caminho_542" class="st0" d="M89.4,73h-0.8c-0.4,0-0.7,0.3-0.7,0.7c0,0.4,0.3,0.7,0.7,0.7l0,0h0.8c0.4,0,0.7-0.3,0.7-0.7    C90.2,73.3,89.9,73,89.4,73C89.5,73,89.5,73,89.4,73L89.4,73z"/>
		<path id="Caminho_543" class="st0" d="M102,22.7H11c-1,0-1.8,0.8-1.8,1.8l0,0v63.3c0,1,0.8,1.8,1.8,1.8h91c1,0,1.8-0.8,1.8-1.8    V24.6C103.8,23.6,103,22.7,102,22.7z M100.2,86.1H12.8V26.4h87.4C100.2,26.4,100.2,86.1,100.2,86.1z"/>
		<path id="Caminho_544" class="st0" d="M72.9,94.6H40.2c-1,0-1.8,0.8-1.8,1.8s0.8,1.8,1.8,1.8l0,0h32.7c1,0,1.8-0.8,1.8-1.8    C74.7,95.4,73.9,94.6,72.9,94.6L72.9,94.6z"/>
		<path id="Caminho_545" class="st0" d="M17,74.4h59.3c0.4,0,0.7-0.3,0.7-0.7c0-0.4-0.3-0.7-0.7-0.7l0,0H17.7V31.2h77.7v39.6    c0,0.4,0.3,0.7,0.7,0.7c0.4,0,0.7-0.3,0.7-0.7V30.5c0-0.4-0.3-0.7-0.7-0.7H17c-0.4,0-0.7,0.3-0.7,0.7l0,0v43.2    C16.3,74.1,16.6,74.4,17,74.4L17,74.4z"/>
		<path id="Caminho_546" class="st0" d="M45.5,38.4c-0.5-0.3-1.2,0-1.5,0.5c-0.1,0.2-0.1,0.3-0.1,0.5v25.4c0,0.6,0.5,1.1,1.1,1.1    l0,0c0.2,0,0.3,0,0.5-0.1l27.4-12.7c0.5-0.3,0.8-0.9,0.5-1.4c-0.1-0.2-0.3-0.4-0.5-0.5L45.5,38.4z M46.1,63.1v-22l23.7,11    L46.1,63.1z"/>
	</g>
</g>
</svg>